<svg xmlns="http://www.w3.org/2000/svg" viewBox="0 0 48 48"><path d="M13.5 6C9.3754991 6 6 9.3754991 6 13.5L6 34.5C6 38.624501 9.3754991 42 13.5 42L34.5 42C38.624501 42 42 38.624501 42 34.5L42 13.5C42 9.3754991 38.624501 6 34.5 6L13.5 6 z M 13.5 9L34.5 9C37.003499 9 39 10.996501 39 13.5L39 18L30.599609 18C28.950631 16.186543 26.631199 15 24 15C21.368801 15 19.049369 16.186543 17.400391 18L9 18L9 13.5C9 10.996501 10.996501 9 13.5 9 z M 31.5 12 A 1.50015 1.50015 0 1 0 31.5 15L34.5 15 A 1.50015 1.50015 0 1 0 34.5 12L31.5 12 z M 24 18C27.331479 18 30 20.668523 30 24C30 27.331477 27.331479 30 24 30C20.668521 30 18 27.331477 18 24C18 20.668523 20.668521 18 24 18 z M 9 21L15.607422 21C15.265966 21.948081 15 22.937567 15 24C15 28.952794 19.047202 33 24 33C28.952798 33 33 28.952794 33 24C33 22.937567 32.734034 21.948081 32.392578 21L39 21L39 34.5C39 37.003499 37.003499 39 34.5 39L13.5 39C10.996501 39 9 37.003499 9 34.5L9 21 z"/></svg>