<?xml version="1.0" encoding="UTF-8" standalone="no"?><!DOCTYPE svg PUBLIC "-//W3C//DTD SVG 1.1//EN" "http://www.w3.org/Graphics/SVG/1.1/DTD/svg11.dtd"><svg width="100%" height="100%" viewBox="0 0 2500 2500" version="1.1" xmlns="http://www.w3.org/2000/svg" xmlns:xlink="http://www.w3.org/1999/xlink" xml:space="preserve" xmlns:serif="http://www.serif.com/" style="fill-rule:evenodd;clip-rule:evenodd;stroke-linejoin:round;stroke-miterlimit:2;"><g transform="matrix(20.2381,0,0,20.2381,372.467,1770.83)"><text x="5.734px" y="11.062px" style="font-family:'Arial-BoldMT', 'Arial', sans-serif;font-weight:700;font-size:15.453px;">VERIFICA</text><text x="4.602px" y="23.939px" style="font-family:'Arial-BoldMT', 'Arial', sans-serif;font-weight:700;font-size:15.453px;">TU T<tspan x="37.787px 48.947px " y="23.939px 23.939px ">AL</tspan>LA</text></g><g><path d="M1131.23,668.824c4.459,-132.077 -27.593,-323.228 -132.585,-427.282c-50.062,-49.614 -110.493,-73.263 -179.696,-70.315c-62.642,2.643 -124.733,30.379 -179.554,80.207c-11.674,10.611 -12.537,28.678 -1.928,40.353c10.609,11.671 28.682,12.537 40.353,1.925c44.798,-40.716 94.432,-63.333 143.551,-65.404c52.624,-2.251 98.753,15.853 137.055,53.815c86.017,85.251 120.088,254.678 115.698,384.813c-0.788,24.459 -2.331,49.668 -4.23,75.07c-50.488,-69.435 -118.626,-131.888 -199.726,-182.67l-7.187,-56.649c-2.882,-22.652 -14.428,-42.833 -32.518,-56.829c-18.081,-13.988 -40.519,-20.112 -63.165,-17.222c-46.785,5.97 -79.997,48.86 -74.039,95.588l7.19,56.655c-71.068,75.088 -124.107,159.542 -154.825,246.166c-4.236,-23.734 -7.498,-47.028 -10.698,-70c-2.233,-16.039 -4.544,-32.621 -7.147,-49.045c-9.617,-60.56 -1.859,-133.782 21.849,-206.179c4.914,-14.993 -3.264,-31.126 -18.255,-36.039c-14.991,-4.908 -31.127,3.262 -36.037,18.258c-26.479,80.852 -34.997,163.575 -23.983,232.912c2.52,15.882 4.79,32.198 6.987,47.974c8.075,57.96 16.462,117.854 39.625,183.767c-7.833,80.472 5.576,158.573 39.993,229.855c9.892,20.55 27.242,36.02 48.851,43.564c0.2,0.069 0.403,0.114 0.6,0.183c6.547,43.715 13.465,98.333 21.315,160.307c16.59,130.048 127.811,225.305 255.538,225.305c10.814,0 21.76,-0.683 32.766,-2.088c141.023,-17.893 241.193,-147.238 223.294,-288.347l-20.369,-159.941c0.468,-0.3 0.948,-0.583 1.411,-0.894c19.044,-12.723 31.961,-32.053 36.365,-54.376c18.519,-92.886 5.502,-187.66 -37.559,-276.878c4.71,-51.979 9.406,-105.429 11.06,-156.559Zm-380.302,-57.998c6.104,-6.235 9.021,-14.922 7.927,-23.58l-8.909,-70.231c-1.977,-15.499 9.054,-29.722 24.582,-31.704c1.214,-0.154 2.425,-0.231 3.628,-0.231c6.255,-0 12.308,2.062 17.353,5.964c6.013,4.653 9.852,11.346 10.803,18.841l8.906,70.214c1.103,8.67 6.107,16.359 13.591,20.87c159.944,96.436 315.629,275.833 272.894,490.169c-1.457,7.373 -5.741,13.763 -12.066,17.987c-6.344,4.239 -13.925,5.765 -21.274,4.316c-15.362,-3.073 -25.363,-18.075 -22.284,-33.466c16.451,-82.628 -1.519,-168.247 -51.97,-247.6c-52.479,-82.542 -126.335,-139.731 -179.056,-173.175c-11.578,-7.349 -26.76,-5.421 -36.146,4.588c-42.695,45.56 -99.921,119.408 -130.074,212.485c-28.979,89.461 -24.914,176.86 11.731,252.705c6.802,14.131 0.849,31.189 -13.211,37.999c-6.801,3.276 -14.51,3.699 -21.706,1.188c-7.181,-2.505 -12.934,-7.621 -16.213,-14.43c-94.968,-196.684 10.823,-409.413 141.494,-542.909Zm158.899,938.318c-109.745,13.994 -210.412,-63.961 -224.417,-173.746c-7.444,-58.757 -14.057,-110.967 -20.361,-153.946c2.408,-0.905 4.796,-1.891 7.144,-3.022c42.404,-20.535 60.28,-71.777 39.83,-114.263c-76.267,-157.854 35.615,-317.186 92.486,-383.362c71.594,49.86 219.75,176.163 185.538,347.993c-9.252,46.257 20.852,91.418 67.178,100.681c2.263,0.446 4.528,0.777 6.793,1.04l19.629,154.154c13.937,109.848 -64.033,210.543 -173.82,224.471Z" style="fill-rule:nonzero;"/><path d="M914.479,1255.89c-0.014,-0 -0.026,0.002 -0.04,0.005l-82.486,10.523c-48.959,6.196 -83.748,51.108 -77.549,100.116c5.721,45.212 44.375,78.35 88.815,78.35c3.736,-0 7.518,-0.237 11.317,-0.717l82.575,-10.526c48.965,-6.196 83.754,-51.145 77.549,-100.196c-6.195,-48.951 -51.141,-83.748 -100.181,-77.555Zm15.431,121.076l-82.575,10.526c-17.77,2.257 -34.006,-10.375 -36.251,-28.128c-2.245,-17.755 10.332,-34.023 28.07,-36.268l82.492,-10.526c17.793,-2.248 34.092,10.343 36.331,28.048c2.254,17.801 -10.326,34.106 -28.067,36.348Z" style="fill-rule:nonzero;"/><path d="M1563.89,1266.43l-82.514,-10.529c-0.009,0 -0.02,-0.003 -0.032,-0.003c-48.988,-6.198 -93.914,28.593 -100.101,77.493c-3.051,23.677 3.356,47.177 18.047,66.17c14.688,18.989 35.817,31.098 59.465,34.089l82.546,10.531c3.791,0.48 7.555,0.714 11.283,0.714c44.369,0 83.074,-33.12 88.907,-78.352c6.198,-49.005 -28.627,-93.914 -77.601,-100.113Zm20.926,92.872c-2.296,17.793 -18.61,30.438 -36.317,28.202l-82.543,-10.532c-8.515,-1.077 -16.141,-5.47 -21.474,-12.369c-5.339,-6.901 -7.676,-15.39 -6.567,-23.974c2.068,-16.336 16.061,-28.307 32.152,-28.307c1.345,-0 2.705,0.083 4.076,0.254l82.543,10.532c17.753,2.245 30.37,18.512 28.13,36.194Z" style="fill-rule:nonzero;"/><path d="M560.202,405.916c4.082,2.04 8.418,3.005 12.7,3.005c10.512,0 20.652,-5.833 25.668,-15.862c7.055,-14.111 1.337,-31.272 -12.777,-38.328c-14.111,-7.058 -31.269,-1.336 -38.325,12.777l-0.08,0.163c-7.055,14.111 -1.297,31.19 12.814,38.245Z" style="fill-rule:nonzero;"/><path d="M1900.47,484.017c-4.921,-14.988 -21.052,-23.143 -36.057,-18.221c-14.987,4.924 -23.145,21.069 -18.218,36.057c23.729,72.217 31.484,145.43 21.838,206.161c-2.6,16.413 -4.911,32.998 -7.144,49.034c-3.197,22.949 -6.456,46.22 -10.686,69.929c-30.73,-86.622 -83.772,-171.047 -154.837,-246.098l7.187,-56.632c2.885,-22.62 -3.234,-45.029 -17.23,-63.104c-13.997,-18.079 -34.175,-29.622 -56.807,-32.501c-22.657,-2.896 -45.117,3.251 -63.221,17.296c-18.067,14.022 -29.57,34.203 -32.378,56.732l-7.253,56.663c-81.08,50.791 -149.209,113.238 -199.697,182.661c-1.925,-25.719 -3.456,-50.841 -4.276,-75.081c-4.336,-130.143 29.793,-299.602 115.809,-384.815c38.296,-37.94 84.419,-56.047 137.041,-53.787c49.751,2.099 98.016,24.102 143.457,65.404c11.674,10.611 29.738,9.749 40.353,-1.926c10.608,-11.674 9.746,-29.741 -1.929,-40.353c-54.823,-49.833 -116.885,-77.566 -179.456,-80.206c-69.16,-2.953 -129.62,20.689 -179.673,70.28c-104.992,104.009 -137.104,295.191 -132.703,427.322c1.686,49.777 6.168,102.421 11.112,156.477c-43.107,89.249 -56.149,184.055 -37.619,276.972c4.733,23.666 18.892,43.098 37.79,55.215l-20.3,159.979c-8.678,68.086 9.817,135.658 52.087,190.265c42.273,54.612 103.046,89.447 171.11,98.085c10.977,1.399 21.937,2.091 32.835,2.091c56.686,-0 111.61,-18.744 157.419,-54.219c54.604,-42.286 89.429,-103.055 98.064,-171.087l0.24,-1.859c8.498,-66.55 14.968,-117.183 21.167,-158.505c20.9,-7.149 39.07,-22.271 49.433,-43.669c34.415,-71.337 47.809,-149.472 39.956,-229.967c23.141,-65.875 31.524,-125.741 39.594,-183.675c2.199,-15.777 4.47,-32.093 6.984,-47.966c11.043,-69.534 2.522,-152.263 -23.992,-232.952Zm-190.059,891.375c-6.716,52.91 -33.838,100.193 -76.37,133.131c-42.544,32.949 -95.117,47.374 -148.061,40.621c-52.933,-6.715 -100.216,-33.84 -133.14,-76.375c-32.923,-42.539 -47.342,-95.123 -40.587,-148.087l19.564,-154.169c2.279,-0.262 4.562,-0.591 6.85,-1.042c46.297,-9.258 76.438,-54.419 67.192,-100.659c-34.303,-171.864 113.901,-298.153 185.524,-348.004c56.84,66.187 168.667,225.54 92.503,383.341c-20.552,42.45 -2.722,93.718 39.802,114.313c2.359,1.137 4.75,2.119 7.158,3.022c-5.942,40.447 -12.169,89.195 -20.192,152.026l-0.243,1.882Zm76.076,-221.683c-4.725,9.755 -14.323,15.602 -24.446,16.059l-0.011,-0c-4.525,0.203 -9.155,-0.669 -13.5,-2.757c-14.114,-6.835 -20.044,-23.868 -13.202,-37.999c36.622,-75.882 40.664,-163.275 11.682,-252.736c-30.146,-93.063 -87.335,-166.914 -130.005,-212.477c-5.564,-5.944 -13.174,-9.04 -20.861,-9.04c-5.267,-0 -10.571,1.453 -15.285,4.441c-52.744,33.438 -126.64,90.63 -179.122,173.181c-50.45,79.352 -68.398,164.977 -51.902,247.623c3.071,15.359 -6.966,30.361 -22.3,33.429c-15.356,3.025 -30.35,-6.998 -33.42,-22.343c-42.713,-214.223 112.972,-393.642 272.911,-490.118c7.469,-4.508 12.474,-12.18 13.579,-20.835l9.001,-70.309c0.928,-7.45 4.736,-14.111 10.723,-18.755c6.021,-4.674 13.485,-6.716 20.969,-5.759c7.504,0.954 14.2,4.793 18.856,10.806c4.647,6.001 6.681,13.425 5.724,20.915l-8.907,70.214c-1.096,8.661 1.826,17.347 7.933,23.586c130.677,133.433 236.494,346.13 141.583,542.874Z" style="fill-rule:nonzero;"/><path d="M1797.33,393.222c4.995,9.989 15.03,15.733 25.476,15.733c4.311,0 8.69,-0.977 12.811,-3.039c14.111,-7.055 19.79,-24.297 12.734,-38.408c-7.058,-14.113 -24.222,-19.832 -38.325,-12.777c-14.113,7.056 -19.832,24.214 -12.776,38.328l0.08,0.163Z" style="fill-rule:nonzero;"/></g></svg>