<?xml version="1.0" encoding="UTF-8" standalone="no"?><!DOCTYPE svg PUBLIC "-//W3C//DTD SVG 1.1//EN" "http://www.w3.org/Graphics/SVG/1.1/DTD/svg11.dtd"><svg width="100%" height="100%" viewBox="0 0 376 431" version="1.1" xmlns="http://www.w3.org/2000/svg" xmlns:xlink="http://www.w3.org/1999/xlink" xml:space="preserve" xmlns:serif="http://www.serif.com/" style="fill-rule:evenodd;clip-rule:evenodd;stroke-linejoin:round;stroke-miterlimit:2;"><g id="mujer"><g><g><path d="M166.224,45.6c-0.457,-4.957 -1.904,-10.157 -4.666,-15.244c-4.555,-8.389 -11.891,-15.059 -21.804,-19.824c-11.249,-5.408 -25.568,-8.15 -42.555,-8.15c-42.413,-0 -65.875,19.993 -78.09,36.766c-1.448,1.99 -1.01,4.778 0.98,6.227c1.99,1.449 4.777,1.01 6.227,-0.979c15.769,-21.655 40.28,-33.1 70.883,-33.1c28.287,0 48.362,8.28 56.524,23.313c5.695,10.488 4.135,21.662 0.275,27.605c-1.34,2.064 -0.754,4.825 1.311,6.165c0.75,0.487 1.591,0.72 2.423,0.72c1.459,0 2.889,-0.715 3.743,-2.031c2.106,-3.243 3.711,-7.427 4.455,-12.136c9.532,3.566 18.535,10.488 25.263,19.579c9.747,13.173 14.443,30.317 13.579,49.577c-1.608,35.752 -13.849,56.447 -24.648,74.705c-2.235,3.778 -4.345,7.347 -6.291,10.933c-1.174,2.164 -0.372,4.869 1.792,6.043c0.676,0.367 1.404,0.54 2.122,0.54c1.582,0 3.114,-0.843 3.922,-2.332c1.867,-3.441 3.937,-6.94 6.128,-10.646c10.77,-18.208 24.173,-40.868 25.881,-78.843c1.97,-43.955 -22.64,-71.169 -47.454,-78.888Z" style="fill-rule:nonzero;"/></g></g><g><g><path d="M174.849,117.438l-7.191,0l0,-18.179c0,-10.891 -5.996,-20.81 -15.647,-25.886c-3.789,-1.994 -8.029,-3.119 -12.335,-3.303c0.683,-2.975 1.099,-5.878 1.233,-8.677c0.118,-2.459 -1.779,-4.547 -4.238,-4.665c-2.48,-0.122 -4.548,1.78 -4.666,4.238c-0.137,2.871 -0.645,5.91 -1.508,9.065l-7.36,0c0.108,-2.387 -0.159,-4.795 -0.832,-7.091c-1.837,-6.275 -6.471,-11.848 -12.713,-15.291c-5.236,-2.889 -11.652,-4.348 -18.552,-4.227c-2.462,0.044 -4.42,2.075 -4.377,4.536c0.044,2.434 2.031,4.377 4.455,4.377c0.027,0 0.054,0 0.082,-0c5.344,-0.098 10.214,0.983 14.087,3.119c4.197,2.316 7.282,5.957 8.463,9.991c0.435,1.486 0.587,3.05 0.469,4.586l-15.823,0c-0.898,-1.736 -2.077,-3.345 -3.493,-4.751c-3.307,-3.287 -7.952,-5.608 -13.438,-6.711c-4.615,-0.922 -9.304,-0.936 -13.442,-0.947c-2.48,-0.004 -4.462,1.983 -4.47,4.445c-0.007,2.461 1.983,4.462 4.445,4.469c3.912,0.012 7.958,0.023 11.715,0.773c2.017,0.406 4.652,1.201 6.95,2.722l-14.186,0c-12.479,0 -22.985,8.593 -25.915,20.171c-0.347,-2.458 -0.55,-4.983 -0.553,-7.608c-0.001,-0.804 0.016,-1.618 0.053,-2.442c0.536,-12.181 6.37,-23.879 16.006,-32.095c6.978,-5.951 15.634,-9.812 25.272,-11.395c5.784,-0.951 11.92,-1.08 18.261,-0.35c0.002,0 0.004,0 0.007,0.001c10.979,1.268 18.619,4.756 22.707,10.367c1.449,1.99 4.238,2.427 6.228,0.978c1.989,-1.45 2.427,-4.238 0.977,-6.227c-5.615,-7.708 -15.337,-12.409 -28.897,-13.974c-4.848,-0.559 -9.602,-0.671 -14.209,-0.351c-13.823,0.96 -26.331,5.81 -36.135,14.17c-11.51,9.815 -18.48,23.841 -19.124,38.482c-0.038,0.868 -0.053,1.724 -0.056,2.572c-0.049,13.931 4.531,25.237 8.973,36.188l0.061,0.151c3.962,9.77 8.003,19.749 9.227,32.146c0.259,2.624 0.395,5.353 0.374,8.216c-0.04,5.461 -0.64,11.394 -1.992,17.944c-0.007,0.032 -0.009,0.065 -0.015,0.097c-1.856,8.963 -5.113,19.084 -10.262,30.752c-0.993,2.252 0.026,4.883 2.278,5.877c0.586,0.259 1.196,0.38 1.797,0.38c1.712,0 3.345,-0.991 4.081,-2.658c3.896,-8.83 6.766,-16.872 8.809,-24.258c0.082,0.081 0.168,0.159 0.25,0.239c0.248,0.243 0.502,0.482 0.755,0.723c0.32,0.303 0.641,0.606 0.967,0.905c0.263,0.241 0.53,0.48 0.797,0.718c0.329,0.293 0.661,0.584 0.996,0.873c0.274,0.237 0.551,0.471 0.829,0.704c0.34,0.285 0.683,0.567 1.028,0.847c0.284,0.23 0.569,0.459 0.856,0.686c0.351,0.277 0.706,0.55 1.063,0.822c0.291,0.222 0.582,0.444 0.876,0.662c0.365,0.271 0.734,0.537 1.103,0.802c0.294,0.211 0.586,0.423 0.883,0.63c0.383,0.268 0.771,0.528 1.159,0.79c0.291,0.197 0.58,0.395 0.875,0.588c0.413,0.271 0.83,0.534 1.248,0.797c0.275,0.174 0.547,0.351 0.823,0.521c0.514,0.316 1.034,0.623 1.555,0.928c0.184,0.108 0.366,0.221 0.551,0.327c0.703,0.405 1.411,0.798 2.123,1.18c0.23,0.124 0.464,0.24 0.696,0.362c0.489,0.256 0.978,0.513 1.47,0.758c0.285,0.142 0.572,0.276 0.857,0.414c0.366,0.177 0.73,0.359 1.097,0.529l-0,7.354c-0,0.284 0.027,0.569 0.081,0.848c2.313,11.924 3.335,22.605 3.041,31.746c-0.162,4.983 -0.716,9.591 -1.646,13.702c-3.273,14.526 -11.246,23.5 -24.278,27.244c0.083,-0.926 0.082,-1.872 -0.005,-2.836c-0.722,-8.077 -7.304,-16.935 -20.712,-27.874c-16.463,-13.432 -19.965,-32.107 -11.71,-62.448c3.977,-14.622 -0.493,-23.552 -5.668,-33.893c-5.267,-10.523 -11.822,-23.621 -13.284,-48.829c-0.987,-16.979 1.852,-33.544 8.208,-47.906c0.996,-2.251 -0.021,-4.883 -2.272,-5.88c-2.251,-0.994 -4.884,0.021 -5.88,2.272c-6.927,15.652 -10.024,33.644 -8.956,52.03c1.568,27.04 8.876,41.641 14.212,52.302c5.064,10.119 8.121,16.227 5.038,27.563c-5.7,20.953 -9.48,46.958 9.317,66.738l-0,43.538c-0,4.42 3.596,8.017 8.017,8.017l140.199,-0c4.42,-0 8.017,-3.597 8.017,-8.017l-0,-43.907c0.001,-16.045 -9.739,-30.535 -24.435,-36.687c-0.032,-0.013 -0.063,-0.027 -0.095,-0.04c-0.593,-0.247 -1.191,-0.484 -1.799,-0.703c-0.003,-0.001 -0.006,-0.002 -0.008,-0.003l-0.455,-0.163l-11.38,-4.084c-0.004,-0.001 -0.009,-0.002 -0.013,-0.004l-16.329,-5.861l0,-4.402c15.69,-7.405 31.495,-21.444 35.932,-36.475l7.226,-0l-0,15.315c-0,0.923 -0.372,1.823 -1.019,2.47l-3.679,3.679c-4.005,-1.566 -8.737,-0.739 -11.967,2.491l-3.253,3.253c-4.35,4.35 -4.35,11.43 0,15.78c2.175,2.175 5.033,3.262 7.89,3.262c2.857,0 5.715,-1.087 7.89,-3.262l3.253,-3.253c3.23,-3.23 4.056,-7.962 2.49,-11.967l3.679,-3.68c2.307,-2.306 3.629,-5.504 3.629,-8.773l-0,-16.918c6.875,-2.99 11.696,-9.844 11.696,-17.806l-0,-10.05c-0,-10.705 -8.707,-19.415 -19.41,-19.415Zm-9.276,114.114c6.539,5.753 10.52,14.15 10.52,23.183l-0,43.009l-138.405,-0l0,-34.683c10.865,9.51 13.615,15.406 13.915,18.762c0.17,1.9 -0.38,3.479 -1.784,5.119c-1.195,1.396 -1.41,3.382 -0.543,5.002c0.782,1.461 2.3,2.354 3.928,2.353c0.178,-0 0.357,-0.011 0.537,-0.032c20.839,-2.521 34.007,-13.779 39.175,-33.465c2.967,-1.396 5.813,-3.195 8.479,-5.378c1.954,-1.599 3.794,-3.392 5.495,-5.348c7.897,9.104 18.383,14.119 28.513,14.119c4.338,-0 8.611,-0.92 12.586,-2.832l0.001,-0c10.755,-5.173 17.231,-16.548 17.583,-29.809Zm-70.632,17.613c0.017,-0.178 0.034,-0.357 0.05,-0.536c0.17,0.032 0.34,0.064 0.511,0.095c-0.186,0.149 -0.373,0.297 -0.561,0.441Zm50.501,-13.861c0.27,-0.269 0.534,-0.541 0.794,-0.815c0.095,-0.101 0.192,-0.2 0.287,-0.302c0.342,-0.369 0.677,-0.743 1.002,-1.122c0.075,-0.088 0.145,-0.177 0.22,-0.265c0.253,-0.302 0.501,-0.606 0.744,-0.914c0.102,-0.13 0.203,-0.261 0.303,-0.392c0.22,-0.288 0.435,-0.578 0.645,-0.87c0.086,-0.12 0.174,-0.239 0.258,-0.36c0.283,-0.405 0.558,-0.813 0.822,-1.227c0.038,-0.06 0.073,-0.12 0.11,-0.18c0.226,-0.36 0.446,-0.724 0.657,-1.092c0.078,-0.136 0.154,-0.272 0.23,-0.408c0.173,-0.311 0.34,-0.623 0.502,-0.938c0.069,-0.133 0.138,-0.266 0.206,-0.401c0.213,-0.428 0.418,-0.859 0.612,-1.296c0.004,-0.01 0.01,-0.021 0.014,-0.031c0,-0.001 0.002,-0.004 0.003,-0.006l2.798,1.004c0.014,0.005 0.028,0.011 0.041,0.016c0.238,0.086 0.472,0.178 0.707,0.269c1.517,12.202 -3.254,23.017 -12.271,27.353c-7.971,3.833 -17.805,1.89 -25.857,-4.597c0.163,-0.03 0.323,-0.064 0.486,-0.095c0.192,-0.036 0.384,-0.073 0.574,-0.111c0.456,-0.091 0.908,-0.187 1.358,-0.288c0.142,-0.031 0.286,-0.061 0.428,-0.094c0.582,-0.134 1.16,-0.276 1.733,-0.427c0.126,-0.033 0.25,-0.069 0.376,-0.103c0.452,-0.121 0.901,-0.248 1.347,-0.379c0.179,-0.053 0.358,-0.107 0.537,-0.162c0.418,-0.128 0.833,-0.26 1.246,-0.397c0.151,-0.05 0.303,-0.098 0.453,-0.149c0.55,-0.187 1.096,-0.381 1.635,-0.583c0.081,-0.03 0.16,-0.062 0.24,-0.093c0.46,-0.175 0.916,-0.356 1.367,-0.541c0.165,-0.069 0.329,-0.137 0.493,-0.207c0.383,-0.162 0.762,-0.327 1.138,-0.497c0.154,-0.069 0.309,-0.138 0.462,-0.208c0.512,-0.236 1.019,-0.478 1.517,-0.728c0.016,-0.008 0.031,-0.016 0.046,-0.024c0.484,-0.243 0.96,-0.494 1.431,-0.75c0.149,-0.08 0.296,-0.163 0.444,-0.246c0.348,-0.193 0.693,-0.391 1.035,-0.592c0.149,-0.088 0.298,-0.174 0.446,-0.263c0.405,-0.245 0.806,-0.494 1.201,-0.748c0.063,-0.04 0.127,-0.079 0.189,-0.119c0.451,-0.293 0.893,-0.594 1.329,-0.9c0.13,-0.09 0.256,-0.183 0.384,-0.274c0.315,-0.225 0.626,-0.454 0.934,-0.686c0.139,-0.105 0.278,-0.21 0.416,-0.317c0.328,-0.254 0.652,-0.513 0.971,-0.775c0.091,-0.073 0.183,-0.146 0.272,-0.22c0.399,-0.333 0.788,-0.672 1.171,-1.015c0.105,-0.094 0.206,-0.191 0.31,-0.286c0.283,-0.259 0.561,-0.521 0.835,-0.786c0.124,-0.121 0.247,-0.242 0.369,-0.363Zm-1.024,-13.645c-0.079,0.164 -0.159,0.328 -0.242,0.492c-0.071,0.139 -0.138,0.278 -0.212,0.416c-0.13,0.246 -0.27,0.488 -0.41,0.73c-0.061,0.106 -0.119,0.213 -0.182,0.319c-0.207,0.345 -0.423,0.686 -0.648,1.023c-0.049,0.073 -0.101,0.143 -0.151,0.215c-0.181,0.265 -0.365,0.529 -0.557,0.789c-0.09,0.122 -0.186,0.242 -0.278,0.362c-0.16,0.208 -0.319,0.415 -0.485,0.62c-0.108,0.132 -0.22,0.263 -0.331,0.394c-0.16,0.189 -0.32,0.378 -0.486,0.564c-0.119,0.134 -0.241,0.266 -0.364,0.399c-0.166,0.181 -0.334,0.36 -0.506,0.537c-0.128,0.131 -0.257,0.262 -0.387,0.392c-0.176,0.176 -0.356,0.349 -0.537,0.521c-0.133,0.127 -0.267,0.253 -0.403,0.377c-0.189,0.174 -0.382,0.344 -0.576,0.514c-0.136,0.119 -0.271,0.239 -0.409,0.356c-0.209,0.177 -0.425,0.35 -0.64,0.524c-0.13,0.105 -0.257,0.211 -0.39,0.314c-0.262,0.205 -0.53,0.406 -0.8,0.605c-0.092,0.067 -0.18,0.136 -0.272,0.204c-0.364,0.263 -0.735,0.521 -1.113,0.774c-0.104,0.069 -0.211,0.136 -0.316,0.205c-0.278,0.182 -0.557,0.364 -0.842,0.54c-0.149,0.093 -0.303,0.182 -0.454,0.273c-0.247,0.148 -0.495,0.297 -0.746,0.441c-0.167,0.096 -0.337,0.189 -0.506,0.283c-0.243,0.135 -0.488,0.268 -0.735,0.399c-0.176,0.093 -0.355,0.185 -0.533,0.276c-0.248,0.126 -0.497,0.251 -0.748,0.374c-0.182,0.089 -0.366,0.177 -0.55,0.264c-0.255,0.119 -0.512,0.236 -0.771,0.352c-0.185,0.083 -0.37,0.166 -0.557,0.246c-0.269,0.116 -0.541,0.228 -0.814,0.34c-0.181,0.074 -0.361,0.149 -0.544,0.221c-0.297,0.117 -0.598,0.229 -0.9,0.341c-0.162,0.06 -0.323,0.123 -0.486,0.181c-0.402,0.144 -0.809,0.282 -1.218,0.416c-0.066,0.022 -0.13,0.046 -0.197,0.068c-0.478,0.154 -0.961,0.301 -1.448,0.443c-0.141,0.041 -0.285,0.078 -0.427,0.118c-0.347,0.097 -0.695,0.193 -1.046,0.284c-0.186,0.048 -0.374,0.091 -0.56,0.137c-0.312,0.077 -0.624,0.152 -0.939,0.223c-0.204,0.046 -0.41,0.09 -0.615,0.133c-0.303,0.065 -0.607,0.128 -0.913,0.187c-0.211,0.041 -0.424,0.08 -0.637,0.119c-0.304,0.055 -0.61,0.108 -0.917,0.158c-0.215,0.035 -0.43,0.07 -0.647,0.102c-0.311,0.047 -0.624,0.09 -0.938,0.132c-0.213,0.028 -0.425,0.056 -0.638,0.082c-0.328,0.039 -0.657,0.073 -0.987,0.107c-0.203,0.02 -0.405,0.042 -0.609,0.061c-0.364,0.032 -0.73,0.059 -1.097,0.084c-0.17,0.012 -0.34,0.027 -0.511,0.037c-0.539,0.032 -1.08,0.058 -1.624,0.074c-1.114,0.032 -2.241,0.032 -3.358,-0c-1.863,-0.054 -3.745,-0.206 -5.593,-0.451c-0.681,-0.09 -1.357,-0.195 -2.031,-0.312c-0.218,-0.037 -0.434,-0.082 -0.651,-0.123c-0.455,-0.084 -0.91,-0.17 -1.362,-0.267c-0.066,-0.014 -0.132,-0.031 -0.199,-0.045c0,-0.016 -0,-0.031 -0,-0.047c-0.003,-0.983 -0.021,-1.983 -0.049,-2.994c-0.005,-0.176 -0.009,-0.35 -0.014,-0.527c-0.032,-0.98 -0.076,-1.975 -0.132,-2.981c-0.011,-0.201 -0.023,-0.402 -0.035,-0.603c-0.06,-1.019 -0.132,-2.049 -0.217,-3.093c-0.013,-0.159 -0.028,-0.32 -0.041,-0.48c-0.091,-1.07 -0.192,-2.151 -0.309,-3.247c-0.004,-0.046 -0.009,-0.09 -0.013,-0.136c-0.12,-1.116 -0.256,-2.249 -0.401,-3.391c-0.024,-0.184 -0.046,-0.369 -0.071,-0.554c-0.143,-1.098 -0.3,-2.208 -0.467,-3.329c-0.034,-0.223 -0.067,-0.446 -0.102,-0.67c-0.172,-1.126 -0.355,-2.262 -0.551,-3.411c-0.033,-0.19 -0.068,-0.382 -0.1,-0.572c-0.207,-1.19 -0.423,-2.389 -0.656,-3.603c-0.005,-0.023 -0.008,-0.045 -0.013,-0.067l0,-3.485c0.068,0.021 0.134,0.038 0.202,0.059c0.567,0.172 1.132,0.338 1.694,0.492c0.005,0.001 0.011,0.003 0.016,0.004c0.556,0.151 1.11,0.291 1.661,0.424c0.15,0.036 0.3,0.071 0.45,0.106c0.468,0.109 0.934,0.211 1.396,0.307c0.097,0.02 0.194,0.042 0.289,0.061c0.544,0.109 1.084,0.207 1.622,0.296c0.133,0.023 0.266,0.043 0.4,0.064c0.433,0.069 0.864,0.131 1.292,0.188c0.131,0.017 0.262,0.035 0.393,0.051c0.527,0.065 1.051,0.122 1.569,0.167c0.094,0.008 0.186,0.013 0.28,0.021c0.437,0.036 0.87,0.064 1.301,0.085c0.139,0.007 0.279,0.014 0.418,0.019c0.511,0.02 1.018,0.034 1.518,0.034c0.513,0 1.034,-0.014 1.557,-0.036c0.142,-0.006 0.283,-0.012 0.425,-0.02c0.448,-0.022 0.9,-0.052 1.354,-0.09c0.088,-0.007 0.175,-0.013 0.263,-0.02c0.532,-0.048 1.07,-0.107 1.612,-0.175c0.133,-0.017 0.268,-0.036 0.401,-0.054c0.447,-0.06 0.897,-0.127 1.348,-0.2c0.125,-0.02 0.249,-0.038 0.374,-0.06c0.554,-0.094 1.111,-0.198 1.671,-0.312c0.105,-0.021 0.21,-0.045 0.315,-0.068c0.475,-0.099 0.952,-0.206 1.431,-0.321c0.143,-0.033 0.285,-0.067 0.428,-0.102c0.574,-0.141 1.149,-0.289 1.728,-0.45c0.036,-0.01 0.073,-0.022 0.11,-0.032c0.544,-0.152 1.09,-0.316 1.639,-0.486c0.073,-0.022 0.146,-0.042 0.219,-0.065l-0,4.024c-0,1.881 1.181,3.56 2.951,4.195l19.887,7.14Zm14.328,-63.472c-0,11.324 -12.885,28.489 -34.451,37.616c-6.28,2.665 -12.363,4.073 -17.591,4.073c-0.706,0 -1.431,-0.031 -2.168,-0.082c-4.604,-0.321 -9.765,-1.631 -15.077,-3.849c-4.653,-1.936 -9.217,-4.475 -13.437,-7.408c-5.023,-3.493 -9.556,-7.546 -13.14,-11.835c0.094,-0.499 0.175,-0.989 0.261,-1.481c0.007,-0.041 0.014,-0.081 0.021,-0.121c0.055,-0.315 0.115,-0.635 0.167,-0.948c0.039,-0.242 0.071,-0.477 0.108,-0.717c0.008,-0.048 0.015,-0.096 0.022,-0.144c0.085,-0.545 0.172,-1.093 0.247,-1.631c0.045,-0.322 0.081,-0.638 0.122,-0.958c0.005,-0.036 0.01,-0.073 0.014,-0.109c0.034,-0.263 0.069,-0.526 0.1,-0.786c0.024,-0.194 0.052,-0.392 0.074,-0.584c0.02,-0.177 0.036,-0.351 0.055,-0.527c0.05,-0.452 0.096,-0.9 0.14,-1.347c0.016,-0.17 0.036,-0.343 0.051,-0.512c0.004,-0.045 0.008,-0.09 0.012,-0.134c0.062,-0.682 0.113,-1.356 0.159,-2.025c0.005,-0.059 0.009,-0.118 0.012,-0.177c0.004,-0.064 0.009,-0.128 0.013,-0.193c1.337,-20.47 -4.385,-34.985 -9.798,-48.338l0,-19.215c-0.001,-9.821 7.992,-17.811 17.816,-17.811l22.922,0c0.004,0 0.007,0.001 0.011,0.001c0.004,-0 0.008,-0.001 0.012,-0.001l22.406,0c0.003,0 0.007,0.001 0.01,0.001c0.004,-0 0.008,-0.001 0.012,-0.001l15.936,0c0.004,0 0.007,0.001 0.011,0.001c0.003,-0 0.007,-0.001 0.011,-0.001l4.618,0c3.292,0 6.554,0.801 9.436,2.316c6.712,3.531 10.883,10.427 10.883,17.997l-0,58.93Zm7.716,41.555l-3.253,3.253c-0.874,0.875 -2.298,0.875 -3.173,-0c-0.875,-0.875 -0.875,-2.298 0,-3.173l3.254,-3.253c0.436,-0.437 1.011,-0.656 1.586,-0.656c0.574,-0 1.149,0.219 1.586,0.656c0.875,0.875 0.875,2.298 -0,3.173Zm18.883,-52.841c0,5.787 -4.708,10.495 -10.495,10.495l-7.191,0l0,-31.045l7.191,-0c5.787,-0 10.495,4.711 10.495,10.501l0,10.049Z" style="fill-rule:nonzero;"/></g></g><g><g><path d="M124.953,154.904c-1.713,-1.768 -4.535,-1.812 -6.302,-0.099c-6.517,6.316 -16.728,6.316 -23.246,0c-1.768,-1.714 -4.59,-1.669 -6.302,0.099c-1.714,1.768 -1.669,4.59 0.099,6.303c4.998,4.844 11.411,7.265 17.826,7.265c6.413,0 12.828,-2.422 17.826,-7.265c1.768,-1.713 1.812,-4.535 0.099,-6.303Z" style="fill-rule:nonzero;"/></g></g><g><g><path d="M148.694,124.312c-2.472,-2.847 -5.95,-4.48 -9.539,-4.48c-3.59,0 -7.067,1.633 -9.54,4.48c-1.614,1.859 -1.415,4.674 0.443,6.288c1.858,1.614 4.673,1.416 6.288,-0.443c0.789,-0.909 1.787,-1.41 2.809,-1.41c1.021,-0 2.018,0.5 2.808,1.41c0.881,1.015 2.121,1.535 3.367,1.535c1.036,0 2.077,-0.359 2.921,-1.092c1.858,-1.614 2.057,-4.429 0.443,-6.288Z" style="fill-rule:nonzero;"/></g></g><g><g><path d="M83.791,124.312c-2.472,-2.846 -5.949,-4.48 -9.539,-4.48c-3.59,0 -7.067,1.634 -9.539,4.48c-1.615,1.859 -1.416,4.674 0.442,6.288c0.844,0.733 1.885,1.092 2.92,1.092c1.247,0 2.487,-0.52 3.368,-1.535c0.79,-0.909 1.787,-1.41 2.808,-1.41c1.021,-0 2.018,0.5 2.808,1.41c1.614,1.858 4.429,2.057 6.288,0.443c1.859,-1.614 2.057,-4.429 0.444,-6.288Z" style="fill-rule:nonzero;"/></g></g></g><g id="whatsapp"><path d="M233.124,124.798c-0.701,-0 -1.383,-0.277 -1.888,-0.789c-0.667,-0.674 -0.924,-1.652 -0.674,-2.567l8.114,-29.627c-5.051,-9.134 -7.715,-19.466 -7.711,-29.955c0.015,-34.11 27.773,-61.86 61.88,-61.86c16.544,0.007 32.088,6.451 43.772,18.143c11.681,11.693 18.112,27.237 18.107,43.767c-0.015,34.111 -27.773,61.862 -61.879,61.862l-0.026,0c-9.963,-0.003 -19.839,-2.431 -28.633,-7.03l-30.389,7.969c-0.223,0.058 -0.45,0.087 -0.673,0.087Z" style="fill:#e5e5e5;fill-rule:nonzero;"/><path d="M233.124,122.142l8.401,-30.68c-5.182,-8.98 -7.908,-19.166 -7.904,-29.601c0.013,-32.646 26.579,-59.206 59.224,-59.206c15.842,0.007 30.711,6.173 41.893,17.365c11.181,11.191 17.337,26.067 17.331,41.889c-0.014,32.644 -26.585,59.208 -59.224,59.208c-0.002,-0 0.001,-0 0,-0l-0.025,-0c-9.912,-0.004 -19.651,-2.49 -28.301,-7.208l-31.395,8.233Zm32.849,-18.951l1.799,1.066c7.556,4.484 16.219,6.856 25.054,6.861l0.019,-0c27.13,-0 49.212,-22.078 49.224,-49.213c0.004,-13.15 -5.111,-25.515 -14.404,-34.817c-9.295,-9.301 -21.653,-14.427 -34.802,-14.432c-27.152,-0 -49.232,22.075 -49.243,49.209c-0.004,9.298 2.597,18.353 7.526,26.189l1.171,1.862l-4.974,18.16l18.63,-4.885Z" style="fill:#fff;fill-rule:nonzero;"/><path d="M235.183,120.075l8.111,-29.62c-5.004,-8.668 -7.635,-18.502 -7.632,-28.575c0.012,-31.516 25.66,-57.156 57.173,-57.156c15.295,0.007 29.65,5.96 40.443,16.764c10.795,10.804 16.736,25.165 16.73,40.437c-0.013,31.516 -25.661,57.159 -57.17,57.159c-0.003,0 0.001,0 -0,0l-0.026,0c-9.568,-0.004 -18.97,-2.405 -27.321,-6.956l-30.308,7.947Z" style="fill:#64b161;fill-rule:nonzero;"/><path d="M233.124,122.142l8.401,-30.68c-5.182,-8.98 -7.908,-19.166 -7.904,-29.601c0.013,-32.646 26.579,-59.206 59.224,-59.206c15.842,0.007 30.711,6.173 41.893,17.365c11.181,11.191 17.337,26.067 17.331,41.889c-0.014,32.644 -26.585,59.208 -59.224,59.208c-0.002,-0 0.001,-0 0,-0l-0.025,-0c-9.912,-0.004 -19.651,-2.49 -28.301,-7.208l-31.395,8.233Zm32.849,-18.951l1.799,1.066c7.556,4.484 16.219,6.856 25.054,6.861l0.019,-0c27.13,-0 49.212,-22.078 49.224,-49.213c0.004,-13.15 -5.111,-25.515 -14.404,-34.817c-9.295,-9.301 -21.653,-14.427 -34.802,-14.432c-27.152,-0 -49.232,22.075 -49.243,49.209c-0.004,9.298 2.597,18.353 7.526,26.189l1.171,1.862l-4.974,18.16l18.63,-4.885Z" style="fill:#fff;fill-rule:nonzero;"/><path d="M278.043,37.109c-1.108,-2.464 -2.275,-2.513 -3.33,-2.556c-0.863,-0.037 -1.85,-0.035 -2.836,-0.035c-0.986,-0 -2.589,0.371 -3.945,1.852c-1.357,1.48 -5.181,5.06 -5.181,12.341c0,7.282 5.304,14.317 6.043,15.306c0.74,0.987 10.238,16.406 25.279,22.338c12.5,4.93 15.043,3.949 17.757,3.702c2.713,-0.246 8.755,-3.58 9.988,-7.035c1.234,-3.455 1.234,-6.416 0.863,-7.036c-0.37,-0.616 -1.357,-0.987 -2.836,-1.726c-1.48,-0.74 -8.755,-4.321 -10.112,-4.814c-1.357,-0.495 -2.343,-0.74 -3.329,0.741c-0.988,1.48 -3.821,4.812 -4.685,5.799c-0.863,0.989 -1.727,1.113 -3.207,0.372c-1.479,-0.742 -6.246,-2.303 -11.899,-7.345c-4.399,-3.921 -7.37,-8.766 -8.233,-10.247c-0.863,-1.48 -0.015,-2.211 0.65,-3.02c1.197,-1.455 3.205,-4.073 3.698,-5.059c0.493,-0.989 0.246,-1.852 -0.123,-2.593c-0.37,-0.74 -3.247,-8.058 -4.562,-10.985Z" style="fill:#fff;"/></g><g transform="matrix(0.965826,0,0,0.965826,-144.86,-116.031)"><text x="170.588px" y="509.804px" style="font-family:'Arial-BoldMT', 'Arial', sans-serif;font-weight:700;font-size:66.667px;">ASESORIA</text><text x="170.588px" y="565.359px" style="font-family:'Arial-BoldMT', 'Arial', sans-serif;font-weight:700;font-size:66.667px;">PERSONAL</text></g></svg>